HIERARCHY
ROOT Hips
{
    OFFSET   0.000000   0.000000   0.000000
    CHANNELS 6 Xposition Yposition Zposition Zrotation Xrotation Yrotation
    JOINT Chest
    {
        OFFSET   0.000000   8.007230   0.000000
        CHANNELS 3 Zrotation Xrotation Yrotation
        JOINT Chest2
        {
            OFFSET   0.000000  22.077100   0.000000
            CHANNELS 3 Zrotation Xrotation Yrotation
            JOINT Neck
            {
                OFFSET   0.000000  23.254700   0.000000
                CHANNELS 3 Zrotation Xrotation Yrotation
                JOINT Head
                {
                    OFFSET   0.000010  14.370000   1.956610
                    CHANNELS 3 Zrotation Xrotation Yrotation
                    End Site
                    {
                        OFFSET   0.000000  19.566000   0.000000
                    }
                }
            }
            JOINT LeftCollar
            {
                OFFSET   3.911900  19.017000  -0.467063
                CHANNELS 3 Zrotation Xrotation Yrotation
                JOINT LeftShoulder
                {
                    OFFSET  10.383700   0.000000   0.000000
                    CHANNELS 3 Zrotation Xrotation Yrotation
                    JOINT LeftElbow
                    {
                        OFFSET  26.662100   0.001671   0.000522
                        CHANNELS 3 Zrotation Xrotation Yrotation
                        JOINT LeftWrist
                        {
                            OFFSET  28.869000   0.000037  -0.000114
                            CHANNELS 3 Zrotation Xrotation Yrotation
                            JOINT LeftFinger0
                            {
                                OFFSET   2.044650  -2.323450   3.252850
                                CHANNELS 3 Zrotation Xrotation Yrotation
                                JOINT LeftFinger01
                                {
                                    OFFSET   3.088140   0.000000   0.000000
                                    CHANNELS 3 Zrotation Xrotation Yrotation
                                    JOINT LeftFinger02
                                    {
                                        OFFSET   2.639460   0.000000   0.000000
                                        CHANNELS 3 Zrotation Xrotation Yrotation
                                        End Site
                                        {
                                            OFFSET   2.582190   0.000000   0.000000
                                        }
                                    }
                                }
                            }
                            JOINT LeftFinger1
                            {
                                OFFSET   8.364480   0.000000   3.252850
                                CHANNELS 3 Zrotation Xrotation Yrotation
                                JOINT LeftFinger11
                                {
                                    OFFSET   4.646930   0.000000   0.000000
                                    CHANNELS 3 Zrotation Xrotation Yrotation
                                    JOINT LeftFinger12
                                    {
                                        OFFSET   2.323470   0.000000   0.000000
                                        CHANNELS 3 Zrotation Xrotation Yrotation
                                        End Site
                                        {
                                            OFFSET   2.273050   0.000000   0.000000
                                        }
                                    }
                                }
                            }
                            JOINT LeftFinger2
                            {
                                OFFSET   8.364490   0.000016   1.078090
                                CHANNELS 3 Zrotation Xrotation Yrotation
                                JOINT LeftFinger21
                                {
                                    OFFSET   5.111620   0.000000   0.000000
                                    CHANNELS 3 Zrotation Xrotation Yrotation
                                    JOINT LeftFinger22
                                    {
                                        OFFSET   2.788150   0.000013   0.000000
                                        CHANNELS 3 Zrotation Xrotation Yrotation
                                        End Site
                                        {
                                            OFFSET   2.727660   0.000000   0.000000
                                        }
                                    }
                                }
                            }
                            JOINT LeftFinger3
                            {
                                OFFSET   7.899780   0.000016  -1.078090
                                CHANNELS 3 Zrotation Xrotation Yrotation
                                JOINT LeftFinger31
                                {
                                    OFFSET   4.646930   0.000000   0.000000
                                    CHANNELS 3 Zrotation Xrotation Yrotation
                                    JOINT LeftFinger32
                                    {
                                        OFFSET   2.323470   0.000000   0.000000
                                        CHANNELS 3 Zrotation Xrotation Yrotation
                                        End Site
                                        {
                                            OFFSET   2.273050   0.000000   0.000000
                                        }
                                    }
                                }
                            }
                            JOINT LeftFinger4
                            {
                                OFFSET   7.435080   0.000000  -3.252850
                                CHANNELS 3 Zrotation Xrotation Yrotation
                                JOINT LeftFinger41
                                {
                                    OFFSET   3.717550   0.000000   0.000000
                                    CHANNELS 3 Zrotation Xrotation Yrotation
                                    JOINT LeftFinger42
                                    {
                                        OFFSET   1.858760   0.000000   0.000000
                                        CHANNELS 3 Zrotation Xrotation Yrotation
                                        End Site
                                        {
                                            OFFSET   1.818440   0.000000   0.000000
                                        }
                                    }
                                }
                            }
                        }
                    }
                }
            }
            JOINT RightCollar
            {
                OFFSET  -3.911900  19.017000  -0.467064
                CHANNELS 3 Zrotation Xrotation Yrotation
                JOINT RightShoulder
                {
                    OFFSET -10.383700   0.000000   0.000000
                    CHANNELS 3 Zrotation Xrotation Yrotation
                    JOINT RightElbow
                    {
                        OFFSET -26.662100   0.001633   0.000260
                        CHANNELS 3 Zrotation Xrotation Yrotation
                        JOINT RightWrist
                        {
                            OFFSET -28.869000  -0.000045  -0.000080
                            CHANNELS 3 Zrotation Xrotation Yrotation
                            JOINT RightFinger0
                            {
                                OFFSET  -2.044660  -2.323490   3.252850
                                CHANNELS 3 Zrotation Xrotation Yrotation
                                JOINT RightFinger01
                                {
                                    OFFSET  -3.088140   0.000000   0.000000
                                    CHANNELS 3 Zrotation Xrotation Yrotation
                                    JOINT RightFinger02
                                    {
                                        OFFSET  -2.639450   0.000000   0.000000
                                        CHANNELS 3 Zrotation Xrotation Yrotation
                                        End Site
                                        {
                                            OFFSET  -2.582190   0.000000   0.000000
                                        }
                                    }
                                }
                            }
                            JOINT RightFinger1
                            {
                                OFFSET  -8.364480   0.000000   3.252850
                                CHANNELS 3 Zrotation Xrotation Yrotation
                                JOINT RightFinger11
                                {
                                    OFFSET  -4.646920   0.000000   0.000000
                                    CHANNELS 3 Zrotation Xrotation Yrotation
                                    JOINT RightFinger12
                                    {
                                        OFFSET  -2.323470   0.000000   0.000000
                                        CHANNELS 3 Zrotation Xrotation Yrotation
                                        End Site
                                        {
                                            OFFSET  -2.273050   0.000000   0.000000
                                        }
                                    }
                                }
                            }
                            JOINT RightFinger2
                            {
                                OFFSET  -8.364480   0.000000   1.078090
                                CHANNELS 3 Zrotation Xrotation Yrotation
                                JOINT RightFinger21
                                {
                                    OFFSET  -5.111610   0.000000   0.000000
                                    CHANNELS 3 Zrotation Xrotation Yrotation
                                    JOINT RightFinger22
                                    {
                                        OFFSET  -2.788160   0.000000   0.000000
                                        CHANNELS 3 Zrotation Xrotation Yrotation
                                        End Site
                                        {
                                            OFFSET  -2.727660   0.000000   0.000000
                                        }
                                    }
                                }
                            }
                            JOINT RightFinger3
                            {
                                OFFSET  -7.899780   0.000000  -1.078090
                                CHANNELS 3 Zrotation Xrotation Yrotation
                                JOINT RightFinger31
                                {
                                    OFFSET  -4.646930   0.000000   0.000000
                                    CHANNELS 3 Zrotation Xrotation Yrotation
                                    JOINT RightFinger32
                                    {
                                        OFFSET  -2.323470   0.000000   0.000000
                                        CHANNELS 3 Zrotation Xrotation Yrotation
                                        End Site
                                        {
                                            OFFSET  -2.273050   0.000000   0.000000
                                        }
                                    }
                                }
                            }
                            JOINT RightFinger4
                            {
                                OFFSET  -7.435090   0.000000  -3.252850
                                CHANNELS 3 Zrotation Xrotation Yrotation
                                JOINT RightFinger41
                                {
                                    OFFSET  -3.717550   0.000000   0.000000
                                    CHANNELS 3 Zrotation Xrotation Yrotation
                                    JOINT RightFinger42
                                    {
                                        OFFSET  -1.858760   0.000000   0.000000
                                        CHANNELS 3 Zrotation Xrotation Yrotation
                                        End Site
                                        {
                                            OFFSET  -1.818440   0.000000   0.000000
                                        }
                                    }
                                }
                            }
                        }
                    }
                }
            }
        }
    }
    JOINT LeftHip
    {
        OFFSET   9.782990   0.000000   0.000000
        CHANNELS 3 Zrotation Xrotation Yrotation
        JOINT LeftKnee
        {
            OFFSET  -0.000063 -41.789100   0.001657
            CHANNELS 3 Zrotation Xrotation Yrotation
            JOINT LeftAnkle
            {
                OFFSET   0.000078 -41.133200  -0.000113
                CHANNELS 3 Zrotation Xrotation Yrotation
                JOINT LeftToe
                {
                    OFFSET   0.000000  -6.358970  14.674500
                    CHANNELS 3 Zrotation Xrotation Yrotation
                    End Site
                    {
                        OFFSET   0.000000   0.000000   3.913200
                    }
                }
            }
        }
    }
    JOINT RightHip
    {
        OFFSET  -9.782990   0.000000   0.000000
        CHANNELS 3 Zrotation Xrotation Yrotation
        JOINT RightKnee
        {
            OFFSET   0.000053 -41.789200   0.000277
            CHANNELS 3 Zrotation Xrotation Yrotation
            JOINT RightAnkle
            {
                OFFSET   0.000030 -41.133200  -0.000150
                CHANNELS 3 Zrotation Xrotation Yrotation
                JOINT RightToe
                {
                    OFFSET   0.000000  -6.358960  14.674500
                    CHANNELS 3 Zrotation Xrotation Yrotation
                    End Site
                    {
                        OFFSET   0.000000   0.000000   3.913200
                    }
                }
            }
        }
    }
}
MOTION
Frames: 6
Frame Time:   0.016667
  1.996210  89.508000   2.333010  -3.024850  -8.465590  -2.873500   0.841087   5.918410   0.110907   1.684190  11.837800   0.135003   1.565350  -0.807740   0.021612   2.572880  -1.634580   9.024290  -4.550190   0.375994   0.820600 -73.640700  12.038500  -0.876117  -0.738318  -1.413510 -24.262400  11.264600  -3.875860   4.449400  39.633900  34.984500 -58.051200 -34.317100   0.000799   0.000588 -12.150600   0.001819  -0.002297 -29.140600   4.545790  -8.090790 -24.105500  -0.007751  -0.000059 -16.864200  -0.001003  -0.013731 -28.258200  -1.767800   3.273790 -34.353400   0.003241   0.001045 -22.879400   0.002321  -0.002143 -27.850400  -1.744040   3.286410 -31.396600   0.003278   0.000581 -20.910100  -0.012221   0.001797 -27.616500  -1.731080   3.293400 -41.508000   0.002613  -0.012419 -27.638500   0.001838  -0.008606   9.742200   1.194540   7.425000  69.921500   9.734080  -3.444180  -1.420200  -7.269990  15.767200 -16.412100  -4.385410   2.776220 -35.292300  26.944000  57.738100  33.867100   0.001305  -0.002266  11.931700   0.002551  -0.001939  36.312300   8.303300  11.128800  30.375900  -0.002368  -0.000905  21.265400  -0.010089  -0.000350  29.887700   3.044180   5.267630  45.043000  -0.001128  -0.000455  29.998700  -0.002482   0.000270  29.252400   0.847842   1.518050  43.880400  -0.004604  -0.002714  29.234500  -0.003398  -0.001070  41.492100  -1.532120  -1.729670  62.273200  -0.005685  -0.002432  41.473900  -0.004100  -0.000383   3.426540  11.483200   4.473220   0.972652   0.151461   6.002620  -2.162410  -3.597550  -0.206181   0.000000   0.000000   0.000000   0.944597  11.114000   0.765224   0.079068   0.575306  -8.663260   0.540216  -3.703360  -1.665450  -0.000000   0.000000  -0.000000
  2.003480  89.508000   2.337360  -3.030210  -8.472380  -2.884980   0.841146   5.918200   0.112857   1.684110  11.837500   0.138930   1.571470  -0.798028   0.021611   2.582900  -1.614840   9.007070  -4.556750   0.383965   0.820590 -73.662000  12.029600  -0.876088  -0.731952  -1.387310 -24.316500  11.259200  -3.875770   4.450620  39.651200  35.003600 -58.055400 -34.310400   0.000799   0.000592 -12.150600   0.001804  -0.002302 -29.134300   4.541720  -8.085740 -24.100000  -0.007743  -0.000059 -16.864200  -0.001009  -0.013731 -28.258200  -1.767800   3.274810 -34.341900   0.003246   0.001044 -22.871800   0.002324  -0.002138 -27.850400  -1.744050   3.287430 -31.388000   0.003282   0.000581 -20.904400  -0.012223   0.001797 -27.616400  -1.731080   3.294390 -41.508000   0.002619  -0.012419 -27.638400   0.001843  -0.008606   9.742170   1.194800   7.419990  69.921400   9.747940  -3.444330  -1.423110  -7.279680  15.768900 -16.406800  -4.385240   2.776550 -35.289800  26.948400  57.741400  33.866800   0.001298  -0.002276  11.931600   0.002548  -0.001932  36.312200   8.305000  11.126300  30.375700  -0.002370  -0.000904  21.265200  -0.010091  -0.000350  29.887500   3.043200   5.269900  45.042800  -0.001124  -0.000451  29.998500  -0.002481   0.000272  29.252500   0.847843   1.517050  43.888000  -0.004603  -0.002713  29.234500  -0.003397  -0.001069  41.491900  -1.532140  -1.729690  62.272900  -0.005684  -0.002432  41.473700  -0.004098  -0.000383   3.426930  11.498200   4.473560   0.973480   0.146924   6.009070  -2.162560  -3.598520  -0.206231   0.000000   0.000000  -0.000000   0.946352  11.102600   0.765153   0.073582   0.600246  -8.668510   0.546622  -3.707950  -1.653360  -0.000000   0.000000   0.000000
  2.014520  89.508000   2.344690  -3.039810  -8.485140  -2.902770   0.841246   5.917990   0.115848   1.683990  11.837100   0.144940   1.582530  -0.782105   0.021607   2.601030  -1.582540   8.976760  -4.566410   0.398296   0.820572 -73.696200  12.015600  -0.876046  -0.720319  -1.341590 -24.406100  11.253200  -3.875640   4.455210  39.674200  35.031800 -58.058900 -34.301200   0.000797   0.000597 -12.150600   0.001777  -0.002306 -29.125200   4.534080  -8.075340 -24.091700  -0.007728  -0.000058 -16.864200  -0.001015  -0.013731 -28.258200  -1.767780   3.278400 -34.330500   0.003260   0.001041 -22.864200   0.002334  -0.002128 -27.850300  -1.744050   3.291030 -31.375100   0.003294   0.000581 -20.895800  -0.012226   0.001798 -27.616100  -1.731090   3.297930 -41.508000   0.002637  -0.012421 -27.638300   0.001856  -0.008608   9.742120   1.195170   7.411870  69.919200   9.763420  -3.444490  -1.425570  -7.289260  15.774000 -16.396800  -4.385080   2.776890 -35.287400  26.955900  57.747000  33.866600   0.001291  -0.002285  11.931500   0.002540  -0.001924  36.312600   8.306810  11.120200  30.375600  -0.002372  -0.000903  21.264900  -0.010096  -0.000349  29.887500   3.040570   5.272170  45.042500  -0.001118  -0.000445  29.998400  -0.002475   0.000275  29.252500   0.847845   1.513370  43.895600  -0.004599  -0.002709  29.234500  -0.003394  -0.001066  41.491600  -1.532180  -1.729730  62.272500  -0.005679  -0.002429  41.473500  -0.004094  -0.000382   3.428280  11.525700   4.474210   0.974985   0.135890   6.019340  -2.162720  -3.599480  -0.206282  -0.000000   0.000000  -0.000000   0.951255  11.091100   0.765082   0.063839   0.636671  -8.676120   0.556899  -3.717080  -1.634950  -0.000000   0.000000   0.000000
  2.021110  89.508000   2.350710  -3.049180  -8.498040  -2.914190   0.841335   5.919730   0.117720   1.683970  11.840600   0.148678   1.592540  -0.770301   0.021301   2.617410  -1.558760   8.949530  -4.571010   0.412877   0.820555 -73.722400  12.006100  -0.876030  -0.708854  -1.301430 -24.477700  11.253300  -3.875540   4.464200  39.681700  35.046100 -58.048600 -34.298300   0.000792   0.000597 -12.150800   0.001754  -0.002302 -29.120800   4.525290  -8.061350 -24.087100  -0.007711  -0.000029 -16.862200  -0.001012  -0.013749 -28.258000  -1.767740   3.287690 -34.332000   0.003282   0.001036 -22.865000   0.002350  -0.002114 -27.849400  -1.743980   3.300390 -31.368600   0.003311   0.000579 -20.891400  -0.012226   0.001799 -27.615700  -1.731010   3.307180 -41.511900   0.002667  -0.012426 -27.638200   0.001874  -0.008612   9.742060   1.195330   7.405390  69.912700   9.764530  -3.441210  -1.425200  -7.285610  15.784100 -16.386000  -4.385120   2.775200 -35.290600  26.962600  57.752300  33.866700   0.001290  -0.002277  11.932000   0.002528  -0.001927  36.315400   8.300580  11.110200  30.375600  -0.002369  -0.000900  21.264800  -0.010103  -0.000346  29.888200   3.036250   5.266440  45.042600  -0.001116  -0.000439  29.998400  -0.002465   0.000276  29.252600   0.844372   1.505870  43.895500  -0.004589  -0.002703  29.234400  -0.003388  -0.001063  41.491700  -1.532240  -1.729780  62.272600  -0.005672  -0.002426  41.473500  -0.004086  -0.000383   3.430890  11.555700   4.475040   0.973954   0.114437   6.026340  -2.159910  -3.594930  -0.206244  -0.000000   0.000000   0.000000   0.960086  11.099900   0.765127   0.052667   0.657677  -8.679650   0.565199  -3.730600  -1.623550   0.000000   0.000000   0.000000
  2.026360  89.508000   2.356930  -3.058700  -8.513400  -2.924040   0.841406   5.924410   0.119236   1.683960  11.849900   0.151670   1.604880  -0.758063   0.020716   2.637650  -1.534080   8.919600  -4.575010   0.426875   0.820545 -73.744800  11.997700  -0.876015  -0.696457  -1.257190 -24.546700  11.253700  -3.875460   4.476340  39.695200  35.057400 -58.045800 -34.296700   0.000780   0.000596 -12.151000   0.001722  -0.002295 -29.118100   4.517240  -8.048100 -24.084000  -0.007689   0.000000 -16.858800  -0.001010  -0.013767 -28.257900  -1.767690   3.294410 -34.334400   0.003310   0.001029 -22.866300   0.002370  -0.002097 -27.848000  -1.743870   3.307160 -31.362300   0.003334   0.000574 -20.887200  -0.012228   0.001800 -27.615300  -1.730870   3.313870 -41.515700   0.002705  -0.012433 -27.638100   0.001897  -0.008617   9.742050   1.195380   7.400130  69.905500   9.765660  -3.436640  -1.425370  -7.279000  15.795500 -16.375400  -4.385420   2.770020 -35.293200  26.968700  57.757100  33.867100   0.001290  -0.002265  11.933600   0.002516  -0.001931  36.319100   8.291290  11.099100  30.375900  -0.002362  -0.000893  21.264800  -0.010113  -0.000342  29.889500   3.031080   5.256180  45.043000  -0.001112  -0.000432  29.998700  -0.002451   0.000278  29.252700   0.838445   1.496590  43.895500  -0.004577  -0.002694  29.234400  -0.003380  -0.001060  41.492100  -1.532270  -1.729810  62.273200  -0.005661  -0.002420  41.473900  -0.004077  -0.000383   3.434280  11.583300   4.475720   0.972241   0.099481   6.033170  -2.157100  -3.590390  -0.206205   0.000000   0.000000  -0.000000   0.969702  11.118000   0.765328   0.044970   0.667195  -8.682170   0.571179  -3.739600  -1.614860   0.000000   0.000000  -0.000000
  2.031200  89.508000   2.363500  -3.066970  -8.531830  -2.932670   0.841442   5.931350   0.120625   1.683910  11.863800   0.154317   1.621650  -0.744039   0.020060   2.665210  -1.505570   8.885250  -4.581060   0.438587   0.820554 -73.760900  11.990000  -0.875979  -0.683262  -1.208870 -24.609000  11.248800  -3.876650   4.491520  39.711000  35.072900 -58.068300 -34.293900   0.000760   0.000550 -12.151200   0.001670  -0.002294 -29.117500   4.513520  -8.041750 -24.083100  -0.007662  -0.000000 -16.856200  -0.001021  -0.013762 -28.258200  -1.767640   3.290960 -34.336200   0.003343   0.001021 -22.867700   0.002393  -0.002074 -27.847300  -1.743690   3.303760 -31.353000   0.003364   0.000571 -20.881000  -0.012231   0.001798 -27.615500  -1.730650   3.310520 -41.513400   0.002748  -0.012440 -27.638100   0.001925  -0.008618   9.742320   1.194330   7.397470  69.901700   9.776120  -3.434840  -1.426110  -7.270980  15.805300 -16.368900  -4.390670   2.760300 -35.288900  26.972300  57.762600  33.872200   0.001275  -0.002257  11.936900   0.002511  -0.001914  36.325900   8.286680  11.090200  30.380300  -0.002353  -0.000882  21.267000  -0.010125  -0.000340  29.894300   3.025650   5.246270  45.049200  -0.001104  -0.000421  30.003000  -0.002434   0.000282  29.256600   0.833105   1.487220  43.901100  -0.004566  -0.002685  29.238100  -0.003369  -0.001054  41.499200  -1.532260  -1.729800  62.283700  -0.005647  -0.002410  41.481000  -0.004068  -0.000384   3.437970  11.595100   4.475850   0.972182   0.123246   6.040550  -2.158390  -3.606690  -0.206556   0.000000   0.000000  -0.000000   0.976299  11.140000   0.768447   0.043146   0.661184  -8.684490   0.572823  -3.737040  -1.609420  -0.000000   0.000000   0.000000
